<svg version="1.1" id="Capa_1" xmlns="http://www.w3.org/2000/svg" xmlns:xlink="http://www.w3.org/1999/xlink" x="0px" y="0px" viewBox="0 0 1131.5 280.5" style="font-family: Inter;" xml:space="preserve">
    <style type="text/css" style="font-family: Inter;">
        .st0 {
            fill-rule: evenodd;
            clip-rule: evenodd;
            fill: #0084CA;
            transition: 0.5s ease-in-out;
        }

        .st1 {
            fill: #0084CA;
            background-color: #0084CA;
            transition: 0.5s ease-in-out;
        }
    </style>
    <path class="st0" d="M576.8,92.2" style="font-family: Inter;"></path>
        <g style="font-family: Inter;">
            <path class="st1" id="st1" d="M1049,57.7h4.1c2,0,3.3-0.3,4-0.8c0.7-0.6,1.1-1.3,1.1-2.3c0-0.6-0.2-1.1-0.5-1.6c-0.3-0.5-0.8-0.8-1.4-1.1
    c-0.6-0.2-1.8-0.3-3.4-0.3h-3.9V57.7z M1045.6,69.1V48.9h7.3c2.5,0,4.3,0.2,5.4,0.5c1.1,0.4,2,1,2.7,1.9c0.6,0.9,1,1.9,1,3
    c0,1.5-0.6,2.8-1.7,3.9c-1.1,1.1-2.6,1.7-4.4,1.9c0.7,0.3,1.3,0.7,1.8,1.1c0.9,0.8,1.9,2.1,3.1,4l2.6,4h-4.2l-1.9-3.2
    c-1.5-2.5-2.6-4.1-3.5-4.7c-0.7-0.5-1.6-0.7-2.8-0.7h-2v8.6H1045.6z M1054.2,43.1c-2.7,0-5.4,0.7-8,2c-2.6,1.3-4.6,3.3-6.1,5.8
    c-1.5,2.5-2.2,5.1-2.2,7.8c0,2.7,0.7,5.3,2.1,7.8c1.4,2.5,3.5,4.4,6.1,5.8c2.6,1.4,5.3,2.1,8.1,2.1c2.8,0,5.5-0.7,8.1-2.1
    c2.6-1.4,4.6-3.3,6-5.8c1.4-2.5,2.2-5,2.2-7.8c0-2.7-0.8-5.4-2.2-7.8c-1.5-2.5-3.5-4.5-6.1-5.8
    C1059.6,43.8,1056.9,43.1,1054.2,43.1 M1054.2,39.9c3.3,0,6.5,0.8,9.6,2.4c3.1,1.6,5.6,3.9,7.3,6.9c1.7,3,2.6,6.2,2.6,9.4
    c0,3.3-0.9,6.4-2.6,9.3c-1.7,3-4.1,5.3-7.2,7c-3.1,1.7-6.3,2.5-9.7,2.5c-3.4,0-6.6-0.8-9.7-2.5c-3.1-1.6-5.5-4-7.3-7
    c-1.8-3-2.6-6.1-2.6-9.3c0-3.3,0.9-6.4,2.6-9.4c1.8-3,4.2-5.3,7.4-6.9C1047.7,40.8,1050.9,39.9,1054.2,39.9" style="font-family: Inter; fill: rbg(0,126,202);"></path>
                    <path class="st1" id="st1" d="M506,227.9c0.8,0,0.8,0,0.8-0.8v-60.7c0-2.8,0-2.3,0.5-3.1c0.5-0.8,62.4-103,62.9-103.8
    c0.5-0.8,0.5-0.8-0.8-0.8h-35.8c-1.1,0-1.1,0-1.6,0.8c-0.7,1.1-41.8,68.2-42.7,69.5c-0.2,0.2-0.3,0.4-0.6,0.4
    c-0.3,0-0.4-0.1-0.6-0.4c-0.8-1.3-42-68.4-42.7-69.5c-0.5-0.8-0.5-0.8-1.6-0.8c-1.1,0-34.5,0-35.8,0c-1.3,0-1.3,0-0.8,0.8
    c0.7,1.1,62.4,103.1,62.9,103.8c0.5,0.8,0.5,0.3,0.5,3.1v60.7c0,0.8,0,0.8,0.8,0.8H506z" style="font-family: Inter; fill: rbg(0,126,202);"></path>
                    <path class="st1" id="st1" d="M127.5,133.5c0.4-0.4,67.5-73.4,68.2-74.1c0.7-0.7,0.7-0.7,1.6-0.7c0.9,0,39.4,0,40.6,0c1.2,0,1.2,0,0.4,0.8
    c-0.8,0.8-65,71.9-65.9,72.8c-0.9,0.9-0.9,0.9-0.1,2c0.8,1,67.9,92.4,68.3,93c0.5,0.6,0.5,0.6-0.2,0.6c-0.7,0-26.5,0-39,0
    c-1.7,0-1.7,0.1-2.9-1.5c0,0-50.1-67-50.5-67.6c-0.4-0.5-0.9-0.6-1.4-0.1c-0.6,0.5-17.1,18.1-18.6,19.7c-0.5,0.6-0.8,0.9-0.8,2
    v46.8c0,0.8,0,0.8-0.8,0.8H92.7c-0.8,0-0.8,0-0.8-0.8V59.5c0-0.8,0-0.8,0.8-0.8h33.7c0.8,0,0.8,0,0.8,0.8c0,0.8,0,71.5,0,72.9
    C127.1,133.9,127.1,133.9,127.5,133.5" style="font-family: Inter; fill: rbg(0,126,202);"></path>
                    <path class="st1" id="st1" d="M674,102c-12.6-22.5-52.7-18.4-52.7-0.1c0,17,20.1,15.9,58.3,33.6c38.4,17.8,27.1,55.3,25.9,59.6
    c-1.2,4.3-10.3,35.3-61.2,35.3c-51.7,0-67.4-36.5-67.8-37.2c-0.3-0.7-0.4-0.6,0.6-1.3c1.2-0.8,24.2-15.9,24.8-16.3
    c0.6-0.4,0.6-0.4,0.8-0.2c0.1,0.2,11.9,23.4,41.7,23.4c27.9,0,28.9-17.4,28.9-18.6c0-1.2,1.3-11.5-17.8-18.8
    c-19.2-7.3-41.5-13.9-55-25.9c-13.4-12-13.4-26.4-13.3-36c0.1-10.6,7.8-32.9,36.3-41.2c0,0,48.4-15.4,75.9,25.3c0,0-1.2-1.7,0,0
    c0.7,0.9,0.7,0.9-0.3,1.6c-0.3,0.2-23.9,16.9-24.4,17.2C674.5,102.7,674.5,102.7,674,102C674,101.9,674,102,674,102" style="font-family: Inter; fill: rbg(0,126,202);"></path>
                    <path class="st1" id="st1" d="M742.2,59.5c0-0.8,0-0.8,0.8-0.8c0.8,0,111.3,0,112.1,0c0.8,0,0.8,0,0.8,0.8v31.2c0,0.8,0,0.8-0.8,0.8
    c-0.8,0-76.4,0-77.1,0c-0.8,0-0.8,0-0.8,0.8v31.6c0,0.8,0,0.8,0.8,0.8h70.3c0.8,0,0.8,0,0.8,0.8v30.3c0,0.8,0,0.8-0.8,0.8h-70.3
    c-0.8,0-0.8,0-0.8,0.8v37c0,0.8,0,0.8,0.8,0.8c0.8,0,76.4,0,77.1,0c0.8,0,0.8,0,0.8,0.8v31.1c0,0.8,0,0.8-0.8,0.8H742.9
    c-0.8,0-0.8,0-0.8-0.8V59.5z" style="font-family: Inter; fill: rbg(0,126,202);"></path>
                    <path class="st1" id="st1" d="M960.8,140.4c0,0-29.1,0-29.9,0c-0.8,0-0.8,0-0.8-0.8V92.1c0-0.8,0-0.8,0.8-0.8c0.8,0,33.9,0,33.9,0
    c13.3,0,24.2,10.4,23.7,24.7c-0.6,14.9-11,23.9-25.7,24.4 M1034.6,227.6c-0.2-0.3-42.4-64.6-42.5-64.8c-0.1-0.1,0-0.2,0-0.2
    c18.3-8.6,31-27.5,31-49.5c0-30-25.8-53.5-56.9-54.4h-70.5c-0.8,0-0.8,0-0.8,0.8v167.6c0,0.8,0,0.8,0.8,0.8c0.8,0,32.9,0,33.7,0
    c0.8,0,0.8,0,0.8-0.8v-56.4c0-0.8,0.1-0.8,0.9-0.8c0.8,0,25.2,0,25.4,0c0.6,0,1.3,0.3,1.7,0.8c0.8,1.2,35.8,55.6,36.3,56.4
    c0.5,0.8,0.5,0.8,2,0.8c1.5,0,36.9,0,37.6,0C1034.8,227.9,1034.8,227.9,1034.6,227.6" style="font-family: Inter; fill: rbg(0,126,202);"></path>
                    <path class="st1" id="st1" d="M358.2,166.4h-48.6c-1.1,0-1.1,0-0.8-0.8c0.3-0.7,24.3-59.1,24.7-59.9c0.4-0.8,0.4-0.8,0.8,0
    c0.4,0.8,24.4,59.1,24.7,59.9C359.3,166.4,359.4,166.4,358.2,166.4 M419.9,227.1c-0.3-0.8-69-165.7-69.5-167
    c-0.6-1.3-0.6-1.3-1.7-1.3h-29.4c-1.1,0-1.1,0-1.7,1.3c-0.6,1.3-69.2,166.2-69.5,167c-0.3,0.8-0.3,0.8,0.5,0.8h34.3
    c0.4,0,0.4,0,0.8-0.8c0.3-0.8,12.3-29.6,12.6-30.4c0.3-0.8,0.3-0.8,0.8-0.8H371c0.5,0,0.4,0,0.8,0.8c0.3,0.8,12.3,29.6,12.6,30.4
    c0.3,0.8,0.3,0.8,0.8,0.8h34.3C420.2,227.9,420.3,227.9,419.9,227.1" style="font-family: Inter; fill: rbg(0,126,202);"></path>
    </g>
</svg>